<svg width="40" height="48" viewBox="0 0 40 48" fill="none" xmlns="http://www.w3.org/2000/svg">
<path d="M1.6 32.1901C2.0363 32.1901 2.39 28.5233 2.39 24.0001C2.39 19.4769 2.0363 15.8101 1.6 15.8101C1.16369 15.8101 0.809998 19.4769 0.809998 24.0001C0.809998 28.5233 1.16369 32.1901 1.6 32.1901Z" fill="white"/>
<path d="M3.70001 33.0999C4.18602 33.0999 4.58001 29.0257 4.58001 23.9999C4.58001 18.9741 4.18602 14.8999 3.70001 14.8999C3.214 14.8999 2.82001 18.9741 2.82001 23.9999C2.82001 29.0257 3.214 33.0999 3.70001 33.0999Z" fill="white"/>
<path d="M6.04001 34.1199C6.57571 34.1199 7.01001 29.589 7.01001 23.9999C7.01001 18.4108 6.57571 13.8799 6.04001 13.8799C5.50431 13.8799 5.07001 18.4108 5.07001 23.9999C5.07001 29.589 5.50431 34.1199 6.04001 34.1199Z" fill="white"/>
<path d="M8.62999 35.24C9.22649 35.24 9.70999 30.2077 9.70999 24C9.70999 17.7923 9.22649 12.76 8.62999 12.76C8.03349 12.76 7.54999 17.7923 7.54999 24C7.54999 30.2077 8.03349 35.24 8.62999 35.24Z" fill="white"/>
<path d="M11.51 36.49C12.1727 36.49 12.71 30.898 12.71 24C12.71 17.102 12.1727 11.51 11.51 11.51C10.8473 11.51 10.31 17.102 10.31 24C10.31 30.898 10.8473 36.49 11.51 36.49Z" fill="white"/>
<path d="M14.72 37.8801C15.4545 37.8801 16.05 31.6658 16.05 24.0001C16.05 16.3344 15.4545 10.1201 14.72 10.1201C13.9855 10.1201 13.39 16.3344 13.39 24.0001C13.39 31.6658 13.9855 37.8801 14.72 37.8801Z" fill="white"/>
<path d="M18.28 39.4201C19.0974 39.4201 19.76 32.5163 19.76 24.0001C19.76 15.4839 19.0974 8.58008 18.28 8.58008C17.4626 8.58008 16.8 15.4839 16.8 24.0001C16.8 32.5163 17.4626 39.4201 18.28 39.4201Z" fill="white"/>
<path d="M22.23 41.1301C23.1413 41.1301 23.88 33.4607 23.88 24.0001C23.88 14.5395 23.1413 6.87012 22.23 6.87012C21.3187 6.87012 20.58 14.5395 20.58 24.0001C20.58 33.4607 21.3187 41.1301 22.23 41.1301Z" fill="white"/>
<path d="M26.62 43.04C27.6307 43.04 28.45 34.5155 28.45 24C28.45 13.4845 27.6307 4.95996 26.62 4.95996C25.6093 4.95996 24.79 13.4845 24.79 24C24.79 34.5155 25.6093 43.04 26.62 43.04Z" fill="white"/>
<path d="M31.5 45.1501C32.6211 45.1501 33.53 35.6809 33.53 24.0001C33.53 12.3193 32.6211 2.8501 31.5 2.8501C30.3789 2.8501 29.47 12.3193 29.47 24.0001C29.47 35.6809 30.3789 45.1501 31.5 45.1501Z" fill="white"/>
<path d="M36.92 47.5C38.1682 47.5 39.18 36.9787 39.18 24C39.18 11.0213 38.1682 0.5 36.92 0.5C35.6718 0.5 34.66 11.0213 34.66 24C34.66 36.9787 35.6718 47.5 36.92 47.5Z" fill="white"/>
</svg>
